<svg width="83" height="62" viewBox="0 0 83 62" fill="none" xmlns="http://www.w3.org/2000/svg">
<g filter="url(#filter0_d_2_241)">
<rect x="3" y="2" width="77" height="56" rx="5" fill="#12A4A7"/>
</g>
<path d="M11.2559 24H6.60938V23.6777C6.9375 23.666 7.18359 23.6367 7.34766 23.5898C7.51172 23.5391 7.62695 23.4473 7.69336 23.3145C7.76367 23.1816 7.79883 22.9863 7.79883 22.7285V16.834C7.79883 16.5449 7.70508 16.3496 7.51758 16.248C7.33008 16.1465 7.02734 16.082 6.60938 16.0547V15.7324H11.4492C12.0781 15.7324 12.6562 15.8359 13.1836 16.043C13.7148 16.25 14.1699 16.543 14.5488 16.9219C14.9316 17.2969 15.2266 17.7422 15.4336 18.2578C15.6406 18.7734 15.7441 19.3281 15.7441 19.9219C15.7441 20.5039 15.6367 21.0449 15.4219 21.5449C15.2109 22.041 14.9062 22.4727 14.5078 22.8398C14.1094 23.207 13.6309 23.4922 13.0723 23.6953C12.5176 23.8984 11.9121 24 11.2559 24ZM8.37891 22.7637V17.3496C8.37891 16.8848 8.33594 16.5586 8.25 16.3711C8.16406 16.1797 7.94141 16.082 7.58203 16.0781C7.75 16.1641 7.85938 16.2715 7.91016 16.4004C7.96484 16.5254 7.99219 16.7188 7.99219 16.9805V22.6172C7.99219 22.8594 7.97852 23.0488 7.95117 23.1855C7.92383 23.3223 7.88281 23.4258 7.82812 23.4961C7.77344 23.5664 7.69141 23.627 7.58203 23.6777C7.87891 23.6777 8.08594 23.6074 8.20312 23.4668C8.32031 23.3223 8.37891 23.0879 8.37891 22.7637ZM9.27539 17.748V22.4766C9.27539 22.8164 9.29883 23.0645 9.3457 23.2207C9.39258 23.373 9.50391 23.4883 9.67969 23.5664C9.85547 23.6406 10.1406 23.6777 10.5352 23.6777C10.9609 23.6777 11.3418 23.6348 11.6777 23.5488C12.0137 23.459 12.334 23.3047 12.6387 23.0859C12.998 22.8281 13.2793 22.5508 13.4824 22.2539C13.6855 21.9531 13.832 21.6133 13.9219 21.2344C14.0156 20.8516 14.0625 20.4258 14.0625 19.957C14.0625 18.5625 13.6543 17.5176 12.8379 16.8223C12.5137 16.5449 12.1543 16.3477 11.7598 16.2305C11.3652 16.1133 10.9004 16.0547 10.3652 16.0547C9.99805 16.0547 9.73828 16.1094 9.58594 16.2188C9.4375 16.3242 9.34766 16.4785 9.31641 16.6816C9.28906 16.8809 9.27539 17.2363 9.27539 17.748ZM12.0117 23.6777C12.5117 23.627 12.9609 23.4551 13.3594 23.1621C13.7578 22.8691 14.0723 22.4531 14.3027 21.9141C14.5371 21.375 14.6543 20.7305 14.6543 19.9805C14.6543 19.4414 14.5977 18.9492 14.4844 18.5039C14.375 18.0586 14.2129 17.6699 13.998 17.3379C13.7832 17.002 13.5215 16.7344 13.2129 16.5352C13.0332 16.4141 12.8457 16.3223 12.6504 16.2598C12.4551 16.1973 12.2422 16.1445 12.0117 16.1016C13.5078 16.6914 14.2559 17.9961 14.2559 20.0156C14.2559 20.6211 14.1758 21.1582 14.0156 21.627C13.8594 22.0957 13.6133 22.502 13.2773 22.8457C12.9414 23.1855 12.5195 23.4629 12.0117 23.6777ZM22.9746 23.6777V24H20.1035V23.6777C20.2559 23.6699 20.3711 23.6602 20.4492 23.6484C20.5312 23.6328 20.6035 23.6035 20.666 23.5605C20.7285 23.5176 20.7734 23.4531 20.8008 23.3672C20.832 23.2773 20.8477 23.1641 20.8477 23.0273V20.2793C20.8477 19.916 20.7656 19.6504 20.6016 19.4824C20.4375 19.3105 20.2402 19.2246 20.0098 19.2246C19.623 19.2246 19.1641 19.4648 18.6328 19.9453V23.0859C18.6328 23.3125 18.6855 23.4648 18.791 23.543C18.9004 23.6211 19.1113 23.666 19.4238 23.6777V24H16.5293V23.6777C16.791 23.6699 16.9805 23.6387 17.0977 23.584C17.2148 23.5254 17.2734 23.3887 17.2734 23.1738V17.4609C17.2734 16.9258 16.998 16.5898 16.4473 16.4531V16.2129L18.3926 15.5977H18.6328V19.5469C18.9141 19.3008 19.2188 19.1113 19.5469 18.9785C19.875 18.8457 20.2051 18.7793 20.5371 18.7793C20.8809 18.7793 21.1758 18.8398 21.4219 18.9609C21.6719 19.082 21.8652 19.2637 22.002 19.5059C22.1387 19.7441 22.207 20.0391 22.207 20.3906V22.8223C22.207 23.0566 22.2129 23.2227 22.2246 23.3203C22.2402 23.418 22.293 23.502 22.3828 23.5723C22.4766 23.6426 22.6289 23.6777 22.8398 23.6777H22.9746ZM21.041 20.0508V23.0977C21.041 23.2461 21.0234 23.3574 20.9883 23.4316C20.9531 23.5059 20.8945 23.584 20.8125 23.666C21.0625 23.6621 21.2285 23.6016 21.3105 23.4844C21.3965 23.3672 21.4395 23.1797 21.4395 22.9219V20.4258C21.4395 20.1211 21.418 19.8848 21.375 19.7168C21.332 19.5449 21.2363 19.4062 21.0879 19.3008C20.9395 19.1914 20.709 19.1289 20.3965 19.1133C20.8262 19.2734 21.041 19.5859 21.041 20.0508ZM17.4668 17.4609V23.0156C17.4668 23.1875 17.4551 23.3164 17.4316 23.4023C17.4121 23.4844 17.3672 23.5645 17.2969 23.6426H17.4551C17.5449 23.6426 17.6348 23.5938 17.7246 23.4961C17.8145 23.3945 17.8594 23.25 17.8594 23.0625V17.4141C17.8594 17.1406 17.8242 16.9316 17.7539 16.7871C17.6914 16.6621 17.5957 16.5605 17.4668 16.4824C17.3418 16.4043 17.209 16.3652 17.0684 16.3652C17.0059 16.3652 16.8984 16.3789 16.7461 16.4062C17.0312 16.5117 17.2227 16.6484 17.3203 16.8164C17.418 16.9805 17.4668 17.1953 17.4668 17.4609ZM24.8379 19.4648C24.8379 19.4805 24.8633 19.5371 24.9141 19.6348C24.9648 19.7324 24.9902 19.8242 24.9902 19.9102C24.9902 20.0781 24.9199 20.2285 24.7793 20.3613C24.6426 20.4902 24.4707 20.5547 24.2637 20.5547C24.0645 20.5547 23.9062 20.5039 23.7891 20.4023C23.6719 20.2969 23.6133 20.1758 23.6133 20.0391C23.6133 19.8359 23.7109 19.6367 23.9062 19.4414C24.1055 19.2461 24.377 19.0879 24.7207 18.9668C25.0684 18.8418 25.4512 18.7793 25.8691 18.7793C26.1738 18.7793 26.457 18.832 26.7188 18.9375C26.9844 19.043 27.1953 19.2031 27.3516 19.418C27.5078 19.6328 27.5859 19.8926 27.5859 20.1973V23.1738C27.5859 23.4121 27.6543 23.5312 27.791 23.5312C27.873 23.5312 27.9727 23.4668 28.0898 23.3379L28.3066 23.5898C28.1152 23.7812 27.9375 23.9258 27.7734 24.0234C27.6133 24.1211 27.4219 24.1699 27.1992 24.1699C26.9414 24.1699 26.7402 24.1133 26.5957 24C26.4512 23.8828 26.3496 23.7031 26.291 23.4609C25.752 23.9258 25.2188 24.1582 24.6914 24.1582C24.3164 24.1582 24.0176 24.0605 23.7949 23.8652C23.5762 23.6699 23.4668 23.4219 23.4668 23.1211C23.4668 22.8516 23.5332 22.623 23.666 22.4355C23.8027 22.2441 23.9805 22.0762 24.1992 21.9316C24.4219 21.7832 24.748 21.5977 25.1777 21.375C25.6074 21.1484 25.9609 20.9551 26.2383 20.7949V19.9102C26.2383 19.6445 26.1777 19.4434 26.0566 19.3066C25.9355 19.1699 25.7539 19.1016 25.5117 19.1016C25.3008 19.1016 25.1348 19.1406 25.0137 19.2188C24.8965 19.293 24.8379 19.375 24.8379 19.4648ZM26.4316 20.291V22.6055C26.4316 23.0625 26.4805 23.4043 26.5781 23.6309C26.6758 23.8535 26.8672 23.9648 27.1523 23.9648C27.2812 23.9648 27.3848 23.9492 27.4629 23.918C27.2285 23.8828 27.0625 23.7891 26.9648 23.6367C26.8672 23.4844 26.8184 23.2461 26.8184 22.9219V20.2324C26.8184 19.8262 26.7598 19.5469 26.6426 19.3945C26.5293 19.2383 26.332 19.1445 26.0508 19.1133C26.2031 19.1914 26.3047 19.3047 26.3555 19.4531C26.4062 19.6016 26.4316 19.8809 26.4316 20.291ZM26.2383 23.0742V21.1934C25.7383 21.4746 25.3887 21.7285 25.1895 21.9551C24.9941 22.1816 24.8965 22.4551 24.8965 22.7754C24.8965 22.9902 24.9551 23.1562 25.0723 23.2734C25.1895 23.3906 25.3262 23.4492 25.4824 23.4492C25.7285 23.4492 25.9805 23.3242 26.2383 23.0742ZM25.207 23.8828C24.8516 23.8828 24.5664 23.8105 24.3516 23.666C24.1406 23.5215 24.0352 23.3125 24.0352 23.0391C24.0352 22.8398 24.0859 22.6523 24.1875 22.4766C24.293 22.2969 24.4492 22.0977 24.6562 21.8789C24.3398 22.0625 24.0938 22.25 23.918 22.4414C23.7461 22.6328 23.6602 22.8594 23.6602 23.1211C23.6602 23.3594 23.7637 23.5586 23.9707 23.7188C24.1816 23.875 24.4102 23.9531 24.6562 23.9531C24.8945 23.9531 25.0781 23.9297 25.207 23.8828ZM24.6562 20.1855C24.5156 20.1973 24.4082 20.1699 24.334 20.1035C24.2598 20.0371 24.2227 19.959 24.2227 19.8691C24.2227 19.748 24.2559 19.6406 24.3223 19.5469C24.3887 19.4492 24.5039 19.3105 24.668 19.1309C24.3906 19.2715 24.1777 19.4121 24.0293 19.5527C23.8809 19.6934 23.8066 19.8516 23.8066 20.0273C23.8066 20.1055 23.8457 20.1797 23.9238 20.25C24.0059 20.3164 24.1016 20.3496 24.2109 20.3496C24.3984 20.3496 24.5469 20.2949 24.6562 20.1855ZM30.9492 18.7793V19.6816C31.25 19.3418 31.4805 19.1074 31.6406 18.9785C31.8008 18.8457 31.9941 18.7793 32.2207 18.7793C32.416 18.7793 32.5801 18.8496 32.7129 18.9902C32.8496 19.127 32.918 19.3008 32.918 19.5117C32.918 19.7305 32.8574 19.9141 32.7363 20.0625C32.6152 20.207 32.4629 20.2793 32.2793 20.2793C32.1973 20.2793 32.1074 20.2637 32.0098 20.2324C31.9121 20.2012 31.8301 20.1602 31.7637 20.1094C31.7246 20.0781 31.6836 20.0449 31.6406 20.0098C31.5977 19.9746 31.5586 19.9473 31.5234 19.9277C31.4922 19.9082 31.457 19.8984 31.418 19.8984C31.3438 19.8984 31.2695 19.9277 31.1953 19.9863C31.125 20.041 31.043 20.1191 30.9492 20.2207V23.0508C30.9492 23.2539 30.9766 23.3984 31.0312 23.4844C31.0898 23.5703 31.1777 23.625 31.2949 23.6484C31.416 23.668 31.625 23.6777 31.9219 23.6777V24H28.7754V23.6777H28.9336C29.3867 23.6777 29.6133 23.498 29.6133 23.1387V20.5078C29.6133 20.0586 29.334 19.75 28.7754 19.582V19.3828L30.6621 18.7793H30.9492ZM29.8066 20.5078V23.1738C29.8066 23.3066 29.7852 23.4062 29.7422 23.4727C29.6992 23.5352 29.6367 23.6035 29.5547 23.6777C29.7773 23.6582 29.9375 23.5996 30.0352 23.502C30.1328 23.4004 30.1816 23.2266 30.1816 22.9805V20.5078C30.1816 20.1719 30.123 19.9277 30.0059 19.7754C29.8887 19.623 29.7031 19.5469 29.4492 19.5469C29.4297 19.5469 29.3867 19.5508 29.3203 19.5586C29.2539 19.5664 29.209 19.5703 29.1855 19.5703C29.5996 19.75 29.8066 20.0625 29.8066 20.5078ZM31.3418 19.6816C31.4473 19.6816 31.5527 19.7168 31.6582 19.7871C31.9004 19.9785 32.1035 20.0742 32.2676 20.0742C32.4707 20.0742 32.6191 19.9434 32.7129 19.6816C32.6035 19.7363 32.5234 19.7637 32.4727 19.7637C32.3555 19.7637 32.2383 19.7246 32.1211 19.6465C31.9727 19.5254 31.8496 19.4648 31.752 19.4648C31.6582 19.4648 31.5215 19.5371 31.3418 19.6816ZM39 19.9805V22.9922C39 23.2031 39.0332 23.3672 39.0996 23.4844C39.166 23.6016 39.2773 23.6621 39.4336 23.666C39.4961 23.666 39.5488 23.668 39.5918 23.6719C39.6348 23.6719 39.6816 23.6738 39.7324 23.6777V24H36.9141V23.6777C37.2227 23.6895 37.4238 23.6445 37.5176 23.543C37.6113 23.4414 37.6582 23.2617 37.6582 23.0039V20.4258C37.6582 19.6484 37.3887 19.2598 36.8496 19.2598C36.6504 19.2598 36.416 19.3281 36.1465 19.4648C35.8809 19.6016 35.6484 19.7734 35.4492 19.9805V23.1094C35.4492 23.3398 35.5098 23.4922 35.6309 23.5664C35.7559 23.6406 35.9473 23.6777 36.2051 23.6777V24H33.3223V23.6777H33.3984C33.5898 23.6777 33.7363 23.6562 33.8379 23.6133C33.9434 23.5703 34.0117 23.5 34.043 23.4023C34.0742 23.3008 34.0898 23.168 34.0898 23.0039V20.6133C34.0898 20.332 34.043 20.1191 33.9492 19.9746C33.8594 19.8301 33.6621 19.6992 33.3574 19.582V19.3828L35.2559 18.7793H35.4492V19.582C35.7617 19.3203 36.0801 19.1211 36.4043 18.9844C36.7324 18.8477 37.0527 18.7793 37.3652 18.7793C37.5762 18.7793 37.7812 18.8125 37.9805 18.8789C38.1836 18.9453 38.3652 19.0449 38.5254 19.1777C38.6855 19.3066 38.8086 19.4629 38.8945 19.6465C39.2266 19.3613 39.5566 19.1465 39.8848 19.002C40.2168 18.8535 40.5625 18.7793 40.9219 18.7793C41.2539 18.7793 41.543 18.8398 41.7891 18.9609C42.0352 19.0781 42.2246 19.2637 42.3574 19.5176C42.4941 19.7715 42.5625 20.082 42.5625 20.4492V23.1094C42.5625 23.2539 42.584 23.3652 42.627 23.4434C42.6738 23.5215 42.75 23.5801 42.8555 23.6191C42.9648 23.6582 43.1152 23.6777 43.3066 23.6777V24H40.4648V23.6777H40.6055C40.8242 23.6777 40.9805 23.6328 41.0742 23.543C41.1719 23.4492 41.2207 23.2891 41.2207 23.0625V20.543C41.2207 20.1367 41.1641 19.8223 41.0508 19.5996C40.9414 19.373 40.7305 19.2598 40.418 19.2598C39.9883 19.2598 39.5156 19.5 39 19.9805ZM38.2324 22.8223V20.2324C38.2324 19.8457 38.1426 19.5645 37.9629 19.3887C37.7832 19.2129 37.5254 19.1426 37.1895 19.1777C37.4668 19.2637 37.6445 19.4102 37.7227 19.6172C37.8047 19.8203 37.8457 20.125 37.8457 20.5312V23.0859C37.8457 23.25 37.8262 23.377 37.7871 23.4668C37.752 23.5527 37.6836 23.6348 37.582 23.7129C37.875 23.6934 38.0566 23.6172 38.127 23.4844C38.1973 23.3477 38.2324 23.127 38.2324 22.8223ZM41.7949 22.8691V20.2676C41.7949 20.041 41.7676 19.8496 41.7129 19.6934C41.6621 19.5332 41.5566 19.4062 41.3965 19.3125C41.2363 19.2188 41.002 19.1738 40.6934 19.1777C40.9785 19.2754 41.1699 19.4062 41.2676 19.5703C41.3652 19.7305 41.4141 19.9746 41.4141 20.3027V22.7754C41.4141 23.0801 41.4004 23.291 41.373 23.4082C41.3457 23.5215 41.2656 23.627 41.1328 23.7246C41.3242 23.7285 41.4688 23.6914 41.5664 23.6133C41.668 23.5352 41.7305 23.4336 41.7539 23.3086C41.7812 23.1836 41.7949 23.0371 41.7949 22.8691ZM34.6816 22.9102V20.4258C34.6816 20.1367 34.6172 19.9199 34.4883 19.7754C34.3633 19.6309 34.1992 19.5586 33.9961 19.5586C33.9531 19.5586 33.8613 19.5664 33.7207 19.582C33.959 19.6641 34.1113 19.7949 34.1777 19.9746C34.248 20.1504 34.2832 20.4082 34.2832 20.748V22.7402C34.2832 23.0527 34.2695 23.2656 34.2422 23.3789C34.2188 23.4922 34.1523 23.5918 34.043 23.6777C34.3281 23.6738 34.5059 23.6055 34.5762 23.4727C34.6465 23.3398 34.6816 23.1523 34.6816 22.9102ZM48.3984 22.5469L48.6328 22.7285C48.457 23.0566 48.248 23.3262 48.0059 23.5371C47.7637 23.748 47.4961 23.9043 47.2031 24.0059C46.9141 24.1074 46.6113 24.1582 46.2949 24.1582C45.8652 24.1582 45.4648 24.0547 45.0938 23.8477C44.7266 23.6406 44.4355 23.3418 44.2207 22.9512C44.0059 22.5605 43.8984 22.1172 43.8984 21.6211C43.8984 21.2305 43.9629 20.8633 44.0918 20.5195C44.2246 20.1758 44.4062 19.873 44.6367 19.6113C44.8711 19.3496 45.1406 19.1465 45.4453 19.002C45.7539 18.8535 46.082 18.7793 46.4297 18.7793C46.7812 18.7793 47.1152 18.8535 47.4316 19.002C47.752 19.1465 48.0059 19.3477 48.1934 19.6055C48.3301 19.793 48.4277 19.9863 48.4863 20.1855C48.5488 20.3809 48.5977 20.6172 48.6328 20.8945H45.0938C45.1094 21.3008 45.1777 21.6445 45.2988 21.9258C45.4238 22.207 45.584 22.4336 45.7793 22.6055C45.9785 22.7773 46.1895 22.9004 46.4121 22.9746C46.6348 23.0488 46.8477 23.0859 47.0508 23.0859C47.543 23.0859 47.9922 22.9062 48.3984 22.5469ZM47.3613 20.5195H47.7715C47.7598 20.082 47.6699 19.7598 47.502 19.5527C47.334 19.3418 47.0527 19.2012 46.6582 19.1309C46.9082 19.2441 47.0879 19.3926 47.1973 19.5762C47.3066 19.7559 47.3613 20.0312 47.3613 20.4023V20.5195ZM45.1289 20.5195H47.1738V20.3262C47.1738 20.0996 47.1328 19.8984 47.0508 19.7227C46.9688 19.543 46.8555 19.4062 46.7109 19.3125C46.5703 19.2148 46.4082 19.166 46.2246 19.166C45.9277 19.166 45.6758 19.2988 45.4688 19.5645C45.2617 19.8262 45.1484 20.1445 45.1289 20.5195ZM45.1816 19.3652C44.4512 19.9434 44.0859 20.7012 44.0859 21.6387C44.0859 22.3184 44.3027 22.875 44.7363 23.3086C45.1738 23.7383 45.6777 23.9531 46.248 23.9531C46.5801 23.9531 46.9121 23.8867 47.2441 23.7539C47.5801 23.6172 47.8633 23.416 48.0938 23.1504C47.8555 23.3027 47.6113 23.4277 47.3613 23.5254C47.1152 23.6191 46.8203 23.666 46.4766 23.666C45.8945 23.666 45.4082 23.4629 45.0176 23.0566C44.6309 22.6504 44.4375 22.1211 44.4375 21.4688C44.4375 21.0547 44.502 20.6836 44.6309 20.3555C44.7598 20.0273 44.9434 19.6973 45.1816 19.3652ZM51.252 18.7793V19.5586C51.5801 19.3047 51.8828 19.1113 52.1602 18.9785C52.4414 18.8457 52.7754 18.7793 53.1621 18.7793C54.2676 18.7793 54.8203 19.3281 54.8203 20.4258V23.0977C54.8203 23.3516 54.8809 23.5117 55.002 23.5781C55.123 23.6445 55.3066 23.6777 55.5527 23.6777V24H52.7285V23.6777C52.9785 23.6777 53.1602 23.6387 53.2734 23.5605C53.3906 23.4785 53.4492 23.3086 53.4492 23.0508V20.2207C53.4492 20.0137 53.416 19.8398 53.3496 19.6992C53.2871 19.5547 53.1934 19.4453 53.0684 19.3711C52.9434 19.2969 52.791 19.2598 52.6113 19.2598C52.3887 19.2598 52.1699 19.3184 51.9551 19.4355C51.7441 19.5488 51.5098 19.7227 51.252 19.957V23.0508C51.252 23.2266 51.2812 23.3613 51.3398 23.4551C51.3984 23.5488 51.4766 23.6074 51.5742 23.6309C51.6758 23.6543 51.8203 23.6699 52.0078 23.6777V24H49.1777V23.6777C49.416 23.6777 49.5996 23.6465 49.7285 23.584C49.8574 23.5176 49.9219 23.3691 49.9219 23.1387V20.543C49.9219 20.2852 49.8633 20.0781 49.7461 19.9219C49.6289 19.7617 49.4395 19.6406 49.1777 19.5586V19.3652L51.0293 18.7793H51.252ZM50.1152 20.3496V23.0391C50.1152 23.2148 50.1016 23.3418 50.0742 23.4199C50.0508 23.498 49.9961 23.584 49.9102 23.6777C50.293 23.6426 50.4844 23.4297 50.4844 23.0391V20.2441C50.4844 20.0488 50.4141 19.8828 50.2734 19.7461C50.1367 19.6055 49.9766 19.5352 49.793 19.5352C49.7734 19.5352 49.7383 19.5391 49.6875 19.5469C49.6367 19.5547 49.6035 19.5586 49.5879 19.5586C49.9395 19.7188 50.1152 19.9824 50.1152 20.3496ZM53.6426 20.1621V23.0508C53.6426 23.1719 53.6387 23.2617 53.6309 23.3203C53.627 23.375 53.6113 23.4297 53.584 23.4844C53.5605 23.5352 53.5117 23.5996 53.4375 23.6777H53.5488C53.752 23.6777 53.8867 23.6035 53.9531 23.4551C54.0195 23.3027 54.0527 23.0762 54.0527 22.7754V20.1855C54.0527 19.8496 53.9785 19.5938 53.8301 19.418C53.6816 19.2422 53.4199 19.1465 53.0449 19.1309C53.2559 19.2168 53.4082 19.3418 53.502 19.5059C53.5957 19.666 53.6426 19.8848 53.6426 20.1621ZM59.4082 16.2363L61.2188 15.6387H61.459V22.9453C61.459 23.1523 61.5137 23.293 61.623 23.3672C61.7363 23.4375 61.9297 23.4727 62.2031 23.4727V23.7832L60.123 24.1582V23.4727C59.5566 23.9297 58.9824 24.1582 58.4004 24.1582C58.0762 24.1582 57.7734 24.0898 57.4922 23.9531C57.2109 23.8164 56.9688 23.625 56.7656 23.3789C56.5625 23.1289 56.4062 22.8438 56.2969 22.5234C56.1914 22.1992 56.1387 21.8594 56.1387 21.5039C56.1387 20.9922 56.2598 20.5273 56.502 20.1094C56.748 19.6914 57.0781 19.3652 57.4922 19.1309C57.9102 18.8965 58.375 18.7793 58.8867 18.7793C59.25 18.7793 59.6621 18.8633 60.123 19.0312V17.5898C60.123 17.2695 60.082 17.0352 60 16.8867C59.9219 16.7383 59.7246 16.6016 59.4082 16.4766V16.2363ZM59.8711 16.3945H59.6719C59.9648 16.5234 60.1445 16.6641 60.2109 16.8164C60.2812 16.9648 60.3164 17.1641 60.3164 17.4141V23.8652C60.4453 23.8105 60.5391 23.7461 60.5977 23.6719C60.6602 23.5977 60.6914 23.4863 60.6914 23.3379V17.4258C60.6914 17.0742 60.6387 16.8145 60.5332 16.6465C60.4277 16.4785 60.207 16.3945 59.8711 16.3945ZM60.123 23.0508V19.6172C59.9863 19.4531 59.8262 19.3262 59.6426 19.2363C59.4629 19.1465 59.2793 19.1016 59.0918 19.1016C58.8145 19.1016 58.5586 19.1875 58.3242 19.3594C58.0898 19.5273 57.9043 19.7832 57.7676 20.127C57.6348 20.4668 57.5684 20.8906 57.5684 21.3984C57.5684 21.8281 57.6289 22.2012 57.75 22.5176C57.8711 22.8301 58.041 23.0684 58.2598 23.2324C58.4785 23.3926 58.7285 23.4727 59.0098 23.4727C59.4121 23.4727 59.7832 23.332 60.123 23.0508ZM58.2773 19.0547C57.9492 19.125 57.6738 19.2344 57.4512 19.3828C57.1113 19.5938 56.8398 19.8965 56.6367 20.291C56.4336 20.6855 56.332 21.1055 56.332 21.5508C56.332 21.9805 56.4199 22.3809 56.5957 22.752C56.7754 23.1191 57.0273 23.4121 57.3516 23.6309C57.6758 23.8457 58.0371 23.9531 58.4355 23.9531C58.709 23.9531 58.9531 23.9121 59.168 23.8301C58.9883 23.8457 58.875 23.8535 58.8281 23.8535C58.5703 23.8535 58.3145 23.8008 58.0605 23.6953C57.8105 23.5898 57.582 23.4355 57.375 23.2324C57.168 23.0254 57.0039 22.7793 56.8828 22.4941C56.7656 22.209 56.707 21.8984 56.707 21.5625C56.707 20.5195 57.2305 19.6836 58.2773 19.0547ZM64.8281 18.7793V19.6816C65.1289 19.3418 65.3594 19.1074 65.5195 18.9785C65.6797 18.8457 65.873 18.7793 66.0996 18.7793C66.2949 18.7793 66.459 18.8496 66.5918 18.9902C66.7285 19.127 66.7969 19.3008 66.7969 19.5117C66.7969 19.7305 66.7363 19.9141 66.6152 20.0625C66.4941 20.207 66.3418 20.2793 66.1582 20.2793C66.0762 20.2793 65.9863 20.2637 65.8887 20.2324C65.791 20.2012 65.709 20.1602 65.6426 20.1094C65.6035 20.0781 65.5625 20.0449 65.5195 20.0098C65.4766 19.9746 65.4375 19.9473 65.4023 19.9277C65.3711 19.9082 65.3359 19.8984 65.2969 19.8984C65.2227 19.8984 65.1484 19.9277 65.0742 19.9863C65.0039 20.041 64.9219 20.1191 64.8281 20.2207V23.0508C64.8281 23.2539 64.8555 23.3984 64.9102 23.4844C64.9688 23.5703 65.0566 23.625 65.1738 23.6484C65.2949 23.668 65.5039 23.6777 65.8008 23.6777V24H62.6543V23.6777H62.8125C63.2656 23.6777 63.4922 23.498 63.4922 23.1387V20.5078C63.4922 20.0586 63.2129 19.75 62.6543 19.582V19.3828L64.541 18.7793H64.8281ZM63.6855 20.5078V23.1738C63.6855 23.3066 63.6641 23.4062 63.6211 23.4727C63.5781 23.5352 63.5156 23.6035 63.4336 23.6777C63.6562 23.6582 63.8164 23.5996 63.9141 23.502C64.0117 23.4004 64.0605 23.2266 64.0605 22.9805V20.5078C64.0605 20.1719 64.002 19.9277 63.8848 19.7754C63.7676 19.623 63.582 19.5469 63.3281 19.5469C63.3086 19.5469 63.2656 19.5508 63.1992 19.5586C63.1328 19.5664 63.0879 19.5703 63.0645 19.5703C63.4785 19.75 63.6855 20.0625 63.6855 20.5078ZM65.2207 19.6816C65.3262 19.6816 65.4316 19.7168 65.5371 19.7871C65.7793 19.9785 65.9824 20.0742 66.1465 20.0742C66.3496 20.0742 66.498 19.9434 66.5918 19.6816C66.4824 19.7363 66.4023 19.7637 66.3516 19.7637C66.2344 19.7637 66.1172 19.7246 66 19.6465C65.8516 19.5254 65.7285 19.4648 65.6309 19.4648C65.5371 19.4648 65.4004 19.5371 65.2207 19.6816ZM68.5957 19.4648C68.5957 19.4805 68.6211 19.5371 68.6719 19.6348C68.7227 19.7324 68.748 19.8242 68.748 19.9102C68.748 20.0781 68.6777 20.2285 68.5371 20.3613C68.4004 20.4902 68.2285 20.5547 68.0215 20.5547C67.8223 20.5547 67.6641 20.5039 67.5469 20.4023C67.4297 20.2969 67.3711 20.1758 67.3711 20.0391C67.3711 19.8359 67.4688 19.6367 67.6641 19.4414C67.8633 19.2461 68.1348 19.0879 68.4785 18.9668C68.8262 18.8418 69.209 18.7793 69.627 18.7793C69.9316 18.7793 70.2148 18.832 70.4766 18.9375C70.7422 19.043 70.9531 19.2031 71.1094 19.418C71.2656 19.6328 71.3438 19.8926 71.3438 20.1973V23.1738C71.3438 23.4121 71.4121 23.5312 71.5488 23.5312C71.6309 23.5312 71.7305 23.4668 71.8477 23.3379L72.0645 23.5898C71.873 23.7812 71.6953 23.9258 71.5312 24.0234C71.3711 24.1211 71.1797 24.1699 70.957 24.1699C70.6992 24.1699 70.498 24.1133 70.3535 24C70.209 23.8828 70.1074 23.7031 70.0488 23.4609C69.5098 23.9258 68.9766 24.1582 68.4492 24.1582C68.0742 24.1582 67.7754 24.0605 67.5527 23.8652C67.334 23.6699 67.2246 23.4219 67.2246 23.1211C67.2246 22.8516 67.291 22.623 67.4238 22.4355C67.5605 22.2441 67.7383 22.0762 67.957 21.9316C68.1797 21.7832 68.5059 21.5977 68.9355 21.375C69.3652 21.1484 69.7188 20.9551 69.9961 20.7949V19.9102C69.9961 19.6445 69.9355 19.4434 69.8145 19.3066C69.6934 19.1699 69.5117 19.1016 69.2695 19.1016C69.0586 19.1016 68.8926 19.1406 68.7715 19.2188C68.6543 19.293 68.5957 19.375 68.5957 19.4648ZM70.1895 20.291V22.6055C70.1895 23.0625 70.2383 23.4043 70.3359 23.6309C70.4336 23.8535 70.625 23.9648 70.9102 23.9648C71.0391 23.9648 71.1426 23.9492 71.2207 23.918C70.9863 23.8828 70.8203 23.7891 70.7227 23.6367C70.625 23.4844 70.5762 23.2461 70.5762 22.9219V20.2324C70.5762 19.8262 70.5176 19.5469 70.4004 19.3945C70.2871 19.2383 70.0898 19.1445 69.8086 19.1133C69.9609 19.1914 70.0625 19.3047 70.1133 19.4531C70.1641 19.6016 70.1895 19.8809 70.1895 20.291ZM69.9961 23.0742V21.1934C69.4961 21.4746 69.1465 21.7285 68.9473 21.9551C68.752 22.1816 68.6543 22.4551 68.6543 22.7754C68.6543 22.9902 68.7129 23.1562 68.8301 23.2734C68.9473 23.3906 69.084 23.4492 69.2402 23.4492C69.4863 23.4492 69.7383 23.3242 69.9961 23.0742ZM68.9648 23.8828C68.6094 23.8828 68.3242 23.8105 68.1094 23.666C67.8984 23.5215 67.793 23.3125 67.793 23.0391C67.793 22.8398 67.8438 22.6523 67.9453 22.4766C68.0508 22.2969 68.207 22.0977 68.4141 21.8789C68.0977 22.0625 67.8516 22.25 67.6758 22.4414C67.5039 22.6328 67.418 22.8594 67.418 23.1211C67.418 23.3594 67.5215 23.5586 67.7285 23.7188C67.9395 23.875 68.168 23.9531 68.4141 23.9531C68.6523 23.9531 68.8359 23.9297 68.9648 23.8828ZM68.4141 20.1855C68.2734 20.1973 68.166 20.1699 68.0918 20.1035C68.0176 20.0371 67.9805 19.959 67.9805 19.8691C67.9805 19.748 68.0137 19.6406 68.0801 19.5469C68.1465 19.4492 68.2617 19.3105 68.4258 19.1309C68.1484 19.2715 67.9355 19.4121 67.7871 19.5527C67.6387 19.6934 67.5645 19.8516 67.5645 20.0273C67.5645 20.1055 67.6035 20.1797 67.6816 20.25C67.7637 20.3164 67.8594 20.3496 67.9688 20.3496C68.1562 20.3496 68.3047 20.2949 68.4141 20.1855Z" fill="white"/>
<path d="M29.3262 28.0547V27.7324H32.8301V28.0547C32.5684 28.0898 32.3008 28.168 32.0273 28.2891C31.7578 28.4102 31.4902 28.5664 31.2246 28.7578C30.959 28.9453 30.6582 29.1836 30.3223 29.4727L28.9102 30.7207L32.0156 34.6055C32.2461 34.8945 32.4297 35.1055 32.5664 35.2383C32.7031 35.3711 32.8418 35.4727 32.9824 35.543C33.127 35.6094 33.293 35.6543 33.4805 35.6777V36H29.543V35.6777C30.168 35.6777 30.4805 35.5371 30.4805 35.2559C30.4805 35.1582 30.4492 35.0586 30.3867 34.957C30.3242 34.8516 30.2402 34.7344 30.1348 34.6055L27.8145 31.7051L27.082 32.3613V34.6055C27.082 34.9258 27.1289 35.1699 27.2227 35.3379C27.3203 35.5059 27.4941 35.6035 27.7441 35.6309C27.873 35.6387 27.9785 35.6484 28.0605 35.6602C28.1465 35.668 28.2207 35.6738 28.2832 35.6777V36H24.2871V35.6777H24.4688C24.8125 35.6777 25.0664 35.6367 25.2305 35.5547C25.3945 35.4727 25.5 35.3555 25.5469 35.2031C25.5938 35.0469 25.6172 34.8398 25.6172 34.582V29.0742C25.6172 28.8125 25.5879 28.6133 25.5293 28.4766C25.4707 28.3359 25.3457 28.2305 25.1543 28.1602C24.9668 28.0898 24.6777 28.0547 24.2871 28.0547V27.7324H28.2832V28.0547H28.2012C27.7441 28.0547 27.4434 28.127 27.2988 28.2715C27.1543 28.416 27.082 28.6602 27.082 29.0039V31.9219L29.4609 29.7949C29.7266 29.5566 29.9258 29.3477 30.0586 29.168C30.1953 28.9844 30.2637 28.8105 30.2637 28.6465C30.2637 28.4707 30.2012 28.3281 30.0762 28.2188C29.9551 28.1094 29.7812 28.0547 29.5547 28.0547H29.3262ZM31.5586 28.0547H30.1816C30.3652 28.207 30.457 28.375 30.457 28.5586C30.457 28.6758 30.4277 28.7969 30.3691 28.9219C30.6348 28.6797 30.8438 28.5 30.9961 28.3828C31.1484 28.2617 31.3359 28.1523 31.5586 28.0547ZM30.6094 34.3066L28.2363 31.3301L27.9727 31.5703L30.1816 34.3828C30.3496 34.5859 30.4727 34.7539 30.5508 34.8867C30.6328 35.0195 30.6738 35.1504 30.6738 35.2793C30.6738 35.4473 30.5781 35.5801 30.3867 35.6777H30.5391C30.6953 35.6777 30.8223 35.6309 30.9199 35.5371C31.0176 35.4434 31.0664 35.334 31.0664 35.209C31.0664 34.9863 30.9141 34.6855 30.6094 34.3066ZM26.1855 34.6582V29.1211C26.1855 28.6914 26.1387 28.4062 26.0449 28.2656C25.9512 28.1211 25.7246 28.0508 25.3652 28.0547C25.5566 28.1406 25.6777 28.2461 25.7285 28.3711C25.7832 28.4961 25.8105 28.7793 25.8105 29.2207V34.752C25.8105 35.0449 25.7773 35.252 25.7109 35.373C25.6484 35.4941 25.5176 35.5957 25.3184 35.6777H25.4648C25.7031 35.6777 25.873 35.6406 25.9746 35.5664C26.0762 35.4883 26.1367 35.3848 26.1562 35.2559C26.1758 35.123 26.1855 34.9238 26.1855 34.6582ZM37.3652 31.2246V30.8789H39.4629V34.8691C39.4629 35.0293 39.4902 35.1484 39.5449 35.2266C39.6035 35.3047 39.6836 35.3555 39.7852 35.3789C39.8906 35.4023 40.0312 35.4141 40.207 35.4141H40.2598V35.748L38.1211 36.1582V35.3496C37.4766 35.8887 36.8359 36.1582 36.1992 36.1582C35.6992 36.1582 35.3008 36.0098 35.0039 35.7129C34.707 35.416 34.5586 34.9961 34.5586 34.4531V32.4141C34.5586 32.1094 34.5488 31.8926 34.5293 31.7637C34.5098 31.6348 34.4434 31.5234 34.3301 31.4297C34.2168 31.3359 34.0293 31.2676 33.7676 31.2246V30.8789H35.9121V34.3418C35.9121 34.6387 35.9375 34.8789 35.9883 35.0625C36.043 35.2461 36.1309 35.3848 36.252 35.4785C36.377 35.5684 36.5391 35.6133 36.7383 35.6133C37.1719 35.6133 37.6328 35.3984 38.1211 34.9688V32.1621C38.1211 31.5684 37.8691 31.2559 37.3652 31.2246ZM38.6953 35.2441V32.0977C38.6953 31.8242 38.6582 31.6074 38.584 31.4473C38.5098 31.2832 38.3477 31.2012 38.0977 31.2012C38.0898 31.2012 38.0605 31.2051 38.0098 31.2129C37.959 31.2207 37.9277 31.2246 37.916 31.2246C38.0723 31.3223 38.1777 31.4453 38.2324 31.5938C38.2871 31.7383 38.3145 31.9238 38.3145 32.1504V35.8652C38.4512 35.8184 38.5488 35.75 38.6074 35.6602C38.666 35.5664 38.6953 35.4277 38.6953 35.2441ZM35.1445 34.5703V31.9336C35.1445 31.4453 34.9531 31.2012 34.5703 31.2012C34.5625 31.2012 34.5293 31.2051 34.4707 31.2129C34.4121 31.2207 34.377 31.2246 34.3652 31.2246C34.5293 31.3496 34.6348 31.4844 34.6816 31.6289C34.7285 31.7734 34.752 31.9551 34.752 32.1738V34.3418C34.752 34.8574 34.875 35.2617 35.1211 35.5547C35.3711 35.8438 35.7109 35.9883 36.1406 35.9883C36.2656 35.9883 36.3867 35.9805 36.5039 35.9648C36.0625 35.9297 35.7246 35.793 35.4902 35.5547C35.2598 35.3164 35.1445 34.9883 35.1445 34.5703ZM40.8691 35.7129V34.1777H41.1855C41.4824 34.7051 41.793 35.1035 42.1172 35.373C42.4414 35.6387 42.7578 35.7715 43.0664 35.7715C43.2656 35.7715 43.4434 35.707 43.5996 35.5781C43.7559 35.4492 43.834 35.3027 43.834 35.1387C43.834 34.9238 43.7754 34.7754 43.6582 34.6934C43.2168 34.4004 42.793 34.1758 42.3867 34.0195C41.3125 33.6211 40.7754 33.0527 40.7754 32.3145C40.7754 31.877 40.9434 31.5117 41.2793 31.2188C41.6152 30.9258 42.0684 30.7793 42.6387 30.7793C42.9277 30.7793 43.1973 30.8105 43.4473 30.873C43.6973 30.9316 43.9746 31.0176 44.2793 31.1309L44.3379 32.5195H44.0508C43.7344 32.0508 43.4199 31.6973 43.1074 31.459C42.7988 31.2207 42.4941 31.1016 42.1934 31.1016C42.0059 31.1016 41.8496 31.1641 41.7246 31.2891C41.6035 31.4102 41.543 31.5449 41.543 31.6934C41.543 31.8848 41.6191 32.0371 41.7715 32.1504C41.9238 32.2598 42.2441 32.4238 42.7324 32.6426C43.2207 32.8613 43.6484 33.0723 44.0156 33.2754C44.2461 33.3965 44.4297 33.5664 44.5664 33.7852C44.7031 34.0039 44.7715 34.2422 44.7715 34.5C44.7715 34.8008 44.6836 35.0781 44.5078 35.332C44.3359 35.5859 44.0957 35.7871 43.7871 35.9355C43.4824 36.084 43.1387 36.1582 42.7559 36.1582C42.2129 36.1582 41.584 36.0098 40.8691 35.7129ZM41.0859 34.6934V35.4258C41.2812 35.5117 41.6055 35.6152 42.0586 35.7363C41.8164 35.5684 41.6367 35.418 41.5195 35.2852C41.4023 35.1523 41.2578 34.9551 41.0859 34.6934ZM43.957 35.4375C44.0625 35.3398 44.1406 35.252 44.1914 35.1738C44.2422 35.0918 44.2676 34.9824 44.2676 34.8457C44.2676 34.4277 43.9629 34.0957 43.3535 33.8496C42.8066 33.623 42.375 33.4238 42.0586 33.252C41.7422 33.0762 41.5137 32.8965 41.373 32.7129C41.2324 32.5254 41.1621 32.293 41.1621 32.0156C41.1621 31.8477 41.209 31.6602 41.3027 31.4531C41.2012 31.5781 41.1191 31.7031 41.0566 31.8281C40.998 31.9492 40.9688 32.0996 40.9688 32.2793C40.9688 32.6504 41.1016 32.9512 41.3672 33.1816C41.6328 33.4121 42.0273 33.6465 42.5508 33.8848C43.0742 34.1191 43.4512 34.3125 43.6816 34.4648C43.9121 34.6133 44.0273 34.8203 44.0273 35.0859C44.0273 35.1836 44.0039 35.3008 43.957 35.4375ZM43.9102 32.0039L43.8574 31.3301C43.5996 31.2246 43.3984 31.1523 43.2539 31.1133C43.1094 31.0742 42.8984 31.0547 42.6211 31.0547C42.9141 31.1562 43.1465 31.2754 43.3184 31.4121C43.4941 31.5449 43.6914 31.7422 43.9102 32.0039ZM51.7207 35.6777V36H48.8496V35.6777C49.002 35.6699 49.1172 35.6602 49.1953 35.6484C49.2773 35.6328 49.3496 35.6035 49.4121 35.5605C49.4746 35.5176 49.5195 35.4531 49.5469 35.3672C49.5781 35.2773 49.5938 35.1641 49.5938 35.0273V32.2793C49.5938 31.916 49.5117 31.6504 49.3477 31.4824C49.1836 31.3105 48.9863 31.2246 48.7559 31.2246C48.3691 31.2246 47.9102 31.4648 47.3789 31.9453V35.0859C47.3789 35.3125 47.4316 35.4648 47.5371 35.543C47.6465 35.6211 47.8574 35.666 48.1699 35.6777V36H45.2754V35.6777C45.5371 35.6699 45.7266 35.6387 45.8438 35.584C45.9609 35.5254 46.0195 35.3887 46.0195 35.1738V29.4609C46.0195 28.9258 45.7441 28.5898 45.1934 28.4531V28.2129L47.1387 27.5977H47.3789V31.5469C47.6602 31.3008 47.9648 31.1113 48.293 30.9785C48.6211 30.8457 48.9512 30.7793 49.2832 30.7793C49.627 30.7793 49.9219 30.8398 50.168 30.9609C50.418 31.082 50.6113 31.2637 50.748 31.5059C50.8848 31.7441 50.9531 32.0391 50.9531 32.3906V34.8223C50.9531 35.0566 50.959 35.2227 50.9707 35.3203C50.9863 35.418 51.0391 35.502 51.1289 35.5723C51.2227 35.6426 51.375 35.6777 51.5859 35.6777H51.7207ZM49.7871 32.0508V35.0977C49.7871 35.2461 49.7695 35.3574 49.7344 35.4316C49.6992 35.5059 49.6406 35.584 49.5586 35.666C49.8086 35.6621 49.9746 35.6016 50.0566 35.4844C50.1426 35.3672 50.1855 35.1797 50.1855 34.9219V32.4258C50.1855 32.1211 50.1641 31.8848 50.1211 31.7168C50.0781 31.5449 49.9824 31.4062 49.834 31.3008C49.6855 31.1914 49.4551 31.1289 49.1426 31.1133C49.5723 31.2734 49.7871 31.5859 49.7871 32.0508ZM46.2129 29.4609V35.0156C46.2129 35.1875 46.2012 35.3164 46.1777 35.4023C46.1582 35.4844 46.1133 35.5645 46.043 35.6426H46.2012C46.291 35.6426 46.3809 35.5938 46.4707 35.4961C46.5605 35.3945 46.6055 35.25 46.6055 35.0625V29.4141C46.6055 29.1406 46.5703 28.9316 46.5 28.7871C46.4375 28.6621 46.3418 28.5605 46.2129 28.4824C46.0879 28.4043 45.9551 28.3652 45.8145 28.3652C45.752 28.3652 45.6445 28.3789 45.4922 28.4062C45.7773 28.5117 45.9688 28.6484 46.0664 28.8164C46.1641 28.9805 46.2129 29.1953 46.2129 29.4609ZM59.6543 32.6895L58.2129 36.1582H57.7617L56.4375 33.252L55.2246 36.1582H54.7734L52.9102 32.1094C52.7656 31.7852 52.6348 31.5586 52.5176 31.4297C52.4043 31.3008 52.2402 31.2285 52.0254 31.2129V30.8789H54.6738V31.2129C54.377 31.2246 54.2285 31.3438 54.2285 31.5703C54.2285 31.6367 54.2402 31.7109 54.2637 31.793C54.2871 31.875 54.3145 31.9512 54.3457 32.0215C54.377 32.0918 54.4141 32.1699 54.457 32.2559L55.541 34.5703L56.2441 32.8535L55.9219 32.1855C55.793 31.9082 55.6699 31.6992 55.5527 31.5586C55.4355 31.4141 55.2793 31.2988 55.084 31.2129V30.8789H57.9609V31.2129C57.7461 31.2129 57.5762 31.2422 57.4512 31.3008C57.3301 31.3555 57.2695 31.4785 57.2695 31.6699C57.2695 31.7715 57.2832 31.8633 57.3105 31.9453C57.3418 32.0273 57.4121 32.1914 57.5215 32.4375L58.5176 34.5703L59.1504 33.0117C59.1855 32.9297 59.2266 32.8379 59.2734 32.7363C59.3203 32.6309 59.3613 32.5117 59.3965 32.3789C59.4316 32.2461 59.4492 32.1055 59.4492 31.957C59.4492 31.7734 59.3965 31.6133 59.291 31.4766C59.1855 31.3359 59.0352 31.248 58.8398 31.2129V30.8789H60.8555V31.2129C60.4062 31.334 60.0059 31.8262 59.6543 32.6895ZM60.1816 31.2012H59.3086C59.4336 31.2832 59.5195 31.377 59.5664 31.4824C59.6133 31.584 59.6465 31.7266 59.666 31.9102C59.7012 31.7773 59.7676 31.6465 59.8652 31.5176C59.9629 31.3848 60.0684 31.2793 60.1816 31.2012ZM56.1387 32.1973L57.8438 35.8945H57.9141C57.9883 35.7812 58.0254 35.6758 58.0254 35.5781C58.0254 35.4531 58.0039 35.3398 57.9609 35.2383C57.918 35.1328 57.8594 35.0059 57.7852 34.8574L56.584 32.2559C56.4277 31.9238 56.3047 31.6914 56.2148 31.5586C56.125 31.4258 56.0234 31.3359 55.9102 31.2891C55.7969 31.2383 55.6406 31.2129 55.4414 31.2129C55.5977 31.3105 55.7246 31.4375 55.8223 31.5938C55.9199 31.75 56.0254 31.9512 56.1387 32.1973ZM53.2969 32.4727L54.8672 35.8945H54.9609C55.0195 35.7656 55.0488 35.6602 55.0488 35.5781C55.0488 35.4453 54.9434 35.1582 54.7324 34.7168L53.5723 32.1738C53.4473 31.8965 53.3457 31.6953 53.2676 31.5703C53.1895 31.4414 53.0957 31.3496 52.9863 31.2949C52.8809 31.2363 52.7285 31.209 52.5293 31.2129C52.6113 31.2715 52.6875 31.3516 52.7578 31.4531C52.832 31.5547 52.9141 31.6953 53.0039 31.875C53.0938 32.0508 53.1914 32.25 53.2969 32.4727ZM62.7012 31.4648C62.7012 31.4805 62.7266 31.5371 62.7773 31.6348C62.8281 31.7324 62.8535 31.8242 62.8535 31.9102C62.8535 32.0781 62.7832 32.2285 62.6426 32.3613C62.5059 32.4902 62.334 32.5547 62.127 32.5547C61.9277 32.5547 61.7695 32.5039 61.6523 32.4023C61.5352 32.2969 61.4766 32.1758 61.4766 32.0391C61.4766 31.8359 61.5742 31.6367 61.7695 31.4414C61.9688 31.2461 62.2402 31.0879 62.584 30.9668C62.9316 30.8418 63.3145 30.7793 63.7324 30.7793C64.0371 30.7793 64.3203 30.832 64.582 30.9375C64.8477 31.043 65.0586 31.2031 65.2148 31.418C65.3711 31.6328 65.4492 31.8926 65.4492 32.1973V35.1738C65.4492 35.4121 65.5176 35.5312 65.6543 35.5312C65.7363 35.5312 65.8359 35.4668 65.9531 35.3379L66.1699 35.5898C65.9785 35.7812 65.8008 35.9258 65.6367 36.0234C65.4766 36.1211 65.2852 36.1699 65.0625 36.1699C64.8047 36.1699 64.6035 36.1133 64.459 36C64.3145 35.8828 64.2129 35.7031 64.1543 35.4609C63.6152 35.9258 63.082 36.1582 62.5547 36.1582C62.1797 36.1582 61.8809 36.0605 61.6582 35.8652C61.4395 35.6699 61.3301 35.4219 61.3301 35.1211C61.3301 34.8516 61.3965 34.623 61.5293 34.4355C61.666 34.2441 61.8438 34.0762 62.0625 33.9316C62.2852 33.7832 62.6113 33.5977 63.041 33.375C63.4707 33.1484 63.8242 32.9551 64.1016 32.7949V31.9102C64.1016 31.6445 64.041 31.4434 63.9199 31.3066C63.7988 31.1699 63.6172 31.1016 63.375 31.1016C63.1641 31.1016 62.998 31.1406 62.877 31.2188C62.7598 31.293 62.7012 31.375 62.7012 31.4648ZM64.2949 32.291V34.6055C64.2949 35.0625 64.3438 35.4043 64.4414 35.6309C64.5391 35.8535 64.7305 35.9648 65.0156 35.9648C65.1445 35.9648 65.248 35.9492 65.3262 35.918C65.0918 35.8828 64.9258 35.7891 64.8281 35.6367C64.7305 35.4844 64.6816 35.2461 64.6816 34.9219V32.2324C64.6816 31.8262 64.623 31.5469 64.5059 31.3945C64.3926 31.2383 64.1953 31.1445 63.9141 31.1133C64.0664 31.1914 64.168 31.3047 64.2188 31.4531C64.2695 31.6016 64.2949 31.8809 64.2949 32.291ZM64.1016 35.0742V33.1934C63.6016 33.4746 63.252 33.7285 63.0527 33.9551C62.8574 34.1816 62.7598 34.4551 62.7598 34.7754C62.7598 34.9902 62.8184 35.1562 62.9355 35.2734C63.0527 35.3906 63.1895 35.4492 63.3457 35.4492C63.5918 35.4492 63.8438 35.3242 64.1016 35.0742ZM63.0703 35.8828C62.7148 35.8828 62.4297 35.8105 62.2148 35.666C62.0039 35.5215 61.8984 35.3125 61.8984 35.0391C61.8984 34.8398 61.9492 34.6523 62.0508 34.4766C62.1562 34.2969 62.3125 34.0977 62.5195 33.8789C62.2031 34.0625 61.957 34.25 61.7812 34.4414C61.6094 34.6328 61.5234 34.8594 61.5234 35.1211C61.5234 35.3594 61.627 35.5586 61.834 35.7188C62.0449 35.875 62.2734 35.9531 62.5195 35.9531C62.7578 35.9531 62.9414 35.9297 63.0703 35.8828ZM62.5195 32.1855C62.3789 32.1973 62.2715 32.1699 62.1973 32.1035C62.123 32.0371 62.0859 31.959 62.0859 31.8691C62.0859 31.748 62.1191 31.6406 62.1855 31.5469C62.252 31.4492 62.3672 31.3105 62.5312 31.1309C62.2539 31.2715 62.041 31.4121 61.8926 31.5527C61.7441 31.6934 61.6699 31.8516 61.6699 32.0273C61.6699 32.1055 61.709 32.1797 61.7871 32.25C61.8691 32.3164 61.9648 32.3496 62.0742 32.3496C62.2617 32.3496 62.4102 32.2949 62.5195 32.1855ZM73.0957 35.6777V36H70.2246V35.6777C70.377 35.6699 70.4922 35.6602 70.5703 35.6484C70.6523 35.6328 70.7246 35.6035 70.7871 35.5605C70.8496 35.5176 70.8945 35.4531 70.9219 35.3672C70.9531 35.2773 70.9688 35.1641 70.9688 35.0273V32.2793C70.9688 31.916 70.8867 31.6504 70.7227 31.4824C70.5586 31.3105 70.3613 31.2246 70.1309 31.2246C69.7441 31.2246 69.2852 31.4648 68.7539 31.9453V35.0859C68.7539 35.3125 68.8066 35.4648 68.9121 35.543C69.0215 35.6211 69.2324 35.666 69.5449 35.6777V36H66.6504V35.6777C66.9121 35.6699 67.1016 35.6387 67.2188 35.584C67.3359 35.5254 67.3945 35.3887 67.3945 35.1738V29.4609C67.3945 28.9258 67.1191 28.5898 66.5684 28.4531V28.2129L68.5137 27.5977H68.7539V31.5469C69.0352 31.3008 69.3398 31.1113 69.668 30.9785C69.9961 30.8457 70.3262 30.7793 70.6582 30.7793C71.002 30.7793 71.2969 30.8398 71.543 30.9609C71.793 31.082 71.9863 31.2637 72.123 31.5059C72.2598 31.7441 72.3281 32.0391 72.3281 32.3906V34.8223C72.3281 35.0566 72.334 35.2227 72.3457 35.3203C72.3613 35.418 72.4141 35.502 72.5039 35.5723C72.5977 35.6426 72.75 35.6777 72.9609 35.6777H73.0957ZM71.1621 32.0508V35.0977C71.1621 35.2461 71.1445 35.3574 71.1094 35.4316C71.0742 35.5059 71.0156 35.584 70.9336 35.666C71.1836 35.6621 71.3496 35.6016 71.4316 35.4844C71.5176 35.3672 71.5605 35.1797 71.5605 34.9219V32.4258C71.5605 32.1211 71.5391 31.8848 71.4961 31.7168C71.4531 31.5449 71.3574 31.4062 71.209 31.3008C71.0605 31.1914 70.8301 31.1289 70.5176 31.1133C70.9473 31.2734 71.1621 31.5859 71.1621 32.0508ZM67.5879 29.4609V35.0156C67.5879 35.1875 67.5762 35.3164 67.5527 35.4023C67.5332 35.4844 67.4883 35.5645 67.418 35.6426H67.5762C67.666 35.6426 67.7559 35.5938 67.8457 35.4961C67.9355 35.3945 67.9805 35.25 67.9805 35.0625V29.4141C67.9805 29.1406 67.9453 28.9316 67.875 28.7871C67.8125 28.6621 67.7168 28.5605 67.5879 28.4824C67.4629 28.4043 67.3301 28.3652 67.1895 28.3652C67.127 28.3652 67.0195 28.3789 66.8672 28.4062C67.1523 28.5117 67.3438 28.6484 67.4414 28.8164C67.5391 28.9805 67.5879 29.1953 67.5879 29.4609Z" fill="white"/>
<path d="M73.3386 44.9095C77.6642 49.6586 65.0537 40.2592 43.5107 42.946C21.9677 45.6328 8.23467 45.9632 7.27518 38.2699C6.31568 30.5767 7.38665 45.888 28.9296 43.2012C50.4726 40.5144 54.6918 39.0329 73.3386 44.9095Z" fill="white"/>
<defs>
<filter id="filter0_d_2_241" x="0" y="0" width="83" height="62" filterUnits="userSpaceOnUse" color-interpolation-filters="sRGB">
<feFlood flood-opacity="0" result="BackgroundImageFix"/>
<feColorMatrix in="SourceAlpha" type="matrix" values="0 0 0 0 0 0 0 0 0 0 0 0 0 0 0 0 0 0 127 0" result="hardAlpha"/>
<feOffset dy="1"/>
<feGaussianBlur stdDeviation="1.5"/>
<feComposite in2="hardAlpha" operator="out"/>
<feColorMatrix type="matrix" values="0 0 0 0 0 0 0 0 0 0 0 0 0 0 0 0 0 0 0.25 0"/>
<feBlend mode="normal" in2="BackgroundImageFix" result="effect1_dropShadow_2_241"/>
<feBlend mode="normal" in="SourceGraphic" in2="effect1_dropShadow_2_241" result="shape"/>
</filter>
</defs>
</svg>
